<?xml version="1.0" encoding="UTF-8" standalone="no"?>
<svg
   xmlns:dc="http://purl.org/dc/elements/1.1/"
   xmlns:cc="http://creativecommons.org/ns#"
   xmlns:rdf="http://www.w3.org/1999/02/22-rdf-syntax-ns#"
   xmlns:svg="http://www.w3.org/2000/svg"
   xmlns="http://www.w3.org/2000/svg"
   xmlns:sodipodi="http://sodipodi.sourceforge.net/DTD/sodipodi-0.dtd"
   xmlns:inkscape="http://www.inkscape.org/namespaces/inkscape"
   version="1.1"
   x="0px"
   y="0px"
   viewBox="0 0 62.950001 63"
   xml:space="preserve"
   id="svg6"
   sodipodi:docname="pin.svg"
   width="16"
   height="16"
   inkscape:version="0.92.1 r15371"><metadata
     id="metadata12"><rdf:RDF><cc:Work
         rdf:about=""><dc:format>image/svg+xml</dc:format><dc:type
           rdf:resource="http://purl.org/dc/dcmitype/StillImage" /><dc:title></dc:title></cc:Work></rdf:RDF></metadata><defs
     id="defs10" /><sodipodi:namedview
     pagecolor="#ffffff"
     bordercolor="#666666"
     borderopacity="1"
     objecttolerance="10"
     gridtolerance="10"
     guidetolerance="10"
     inkscape:pageopacity="0"
     inkscape:pageshadow="2"
     inkscape:window-width="1920"
     inkscape:window-height="1052"
     id="namedview8"
     showgrid="false"
     inkscape:zoom="5.3400704"
     inkscape:cx="-1.9270884"
     inkscape:cy="0.75075429"
     inkscape:window-x="5376"
     inkscape:window-y="282"
     inkscape:window-maximized="1"
     inkscape:current-layer="svg6" /><style
     type="text/css"
     id="style2">
	.st0{fill:rgb(255,65,54);}
</style><path
     class="st0"
     d="m 53.35,32.6 9.6,-9.6 -23,-23 -9.6,9.6 4.3,4.3 -4.3,4.3 c -7.5,-2.3 -15.8,-0.3 -21.5,5.4 l -2.7,2.7 13.3,13.4 -18.7,18.8 c -1,1 -1,2.6 0,3.6 0.5,0.6 1.2,0.9 1.8,0.9 0.6,0 1.3,-0.3 1.8,-0.8 l 18.8,-18.7 13.5,13.4 2.7,-2.7 c 5.7,-5.7 7.7,-14 5.4,-21.5 l 4.2,-4.2 z"
     id="path4"
     inkscape:connector-curvature="0"
     style="fill:#ff4136" /><rect
     style="fill:none;fill-opacity:1;stroke-width:5.88800001;stroke-miterlimit:4;stroke-dasharray:none"
     id="rect4489"
     width="63.029659"
     height="65.280731"
     x="-0.011862564"
     y="-0.22669792" /><rect
     style="fill:none;fill-opacity:1;stroke-width:5.88800001;stroke-miterlimit:4;stroke-dasharray:none"
     id="rect4491"
     width="63.669575"
     height="66.85305"
     x="-0.38544542"
     y="-3.798171"
     ry="2.1186399" /><rect
     style="fill:none;fill-opacity:1;stroke-width:5.88800001;stroke-miterlimit:4;stroke-dasharray:none"
     id="rect4493"
     width="60.486095"
     height="75.654434"
     x="-6.5651398"
     y="-0.80195618"
     ry="2.1186399" /></svg>
